<?xml version="1.0" encoding="utf-8"?>
<!-- Generator: Adobe Illustrator 19.0.1, SVG Export Plug-In . SVG Version: 6.00 Build 0)  -->
<svg version="1.1" id="Layer_1" xmlns="http://www.w3.org/2000/svg" xmlns:xlink="http://www.w3.org/1999/xlink" x="0px" y="0px"
	 viewBox="-1042 684.7 114.9 32.3" style="enable-background:new -1042 684.7 114.9 32.3;" xml:space="preserve">
<style type="text/css">
	.st0{fill:#FF7900;}
	.st1{fill:#00C9FF;}
</style>
<path class="st0" d="M-1032.7,713.3v-1.5c0-0.8,0.6-1.4,1.4-1.4h5.7c0.6,0,0.8,0,0.8-0.7v-1.4h-5.8c-1.9,0-2.7-0.4-2.7-2.6v-8.4
	c0-2.2,0.9-2.6,2.7-2.6h6.1c1.9,0,2.7,0.4,2.7,2.6v13.4c0,2.2-0.9,2.6-2.7,2.6L-1032.7,713.3L-1032.7,713.3z M-1024.8,698.2
	c0-0.7-0.1-0.8-0.8-0.8h-4c-0.6,0-0.8,0-0.8,0.8v6.5c0,0.7,0.1,0.8,0.8,0.8h4.8V698.2z"/>
<path class="st0" d="M-1017.8,708.3c-1.9,0-2.7-0.4-2.7-2.6v-3.3c0-2.2,0.9-2.6,2.7-2.6h5.8v-1.5c0-0.7-0.1-0.8-0.8-0.8h-6.1
	c-0.8,0-1.4-0.6-1.4-1.4v-1.5h8.5c1.9,0,2.7,0.4,2.7,2.6v8.5c0,2.2-0.9,2.6-2.7,2.6H-1017.8L-1017.8,708.3z M-1011.9,702.7h-4.8
	c-0.6,0-0.8,0-0.8,0.8v1.3c0,0.7,0.1,0.8,0.8,0.8h4c0.6,0,0.8,0,0.8-0.8V702.7z"/>
<path class="st0" d="M-984.1,708.5c-1.9,0-2.7-0.4-2.7-2.6v-8.5c0-2.2,0.9-2.6,2.7-2.6h6.1c1.9,0,2.7,0.4,2.7,2.6v3.1
	c0,2.2-0.9,2.6-2.7,2.6h-5.8v1.7c0,0.7,0.2,0.8,0.8,0.8h5.8c0.8,0,1.4,0.6,1.4,1.4v1.5H-984.1z M-978.3,698.2c0-0.7-0.2-0.8-0.8-0.8
	h-4c-0.6,0-0.8,0-0.8,0.8v1.9h4.8c0.6,0,0.8,0,0.8-0.8V698.2z"/>
<path class="st1" d="M-969.3,708.3c-1.9,0-2.7-0.4-2.7-2.6v-8.2h-0.9c-0.8,0-1.4-0.6-1.4-1.4v-1.5h2.3v-5.2h3v5.1h2.4v2.9h-2.4v7.2
	c0,0.7,0.2,0.8,0.8,0.8h1.6v2.9H-969.3z"/>
<path class="st1" d="M-962.2,708.3c-1.9,0-2.7-0.4-2.7-2.6v-3.3c0-2.2,0.9-2.6,2.7-2.6h5.8v-1.5c0-0.7-0.1-0.8-0.8-0.8h-6.1
	c-0.8,0-1.4-0.6-1.4-1.4v-1.5h8.5c1.9,0,2.8,0.4,2.8,2.6l0.1,8.5c0,2.2-0.9,2.6-2.8,2.6H-962.2L-962.2,708.3z M-956.4,702.7h-4.8
	c-0.6,0-0.8,0-0.8,0.8v1.3c0,0.7,0.2,0.8,0.8,0.8h4c0.6,0,0.8,0,0.8-0.8V702.7z"/>
<path class="st1" d="M-949.2,708.5c-1.9,0-2.7-0.4-2.7-2.6v-17.5h3v16.4c0,0.7,0.1,0.8,0.8,0.8h1.6v2.9H-949.2L-949.2,708.5z"/>
<path class="st1" d="M-939.1,708.5l-3.3-5.4v5.4h-3v-20h3v11.8l3.4-5.5h3.2l-4.3,6.9l4.2,6.8H-939.1z"/>
<path class="st0" d="M-990.8,694.7h-0.6h-1.3c-0.5,0-1.3,0.2-1.8,0.5l0,0c-0.5,0.4-1.1,0.5-1.7,0.5h-4.1c-0.6,0-1.1-0.2-1.5-0.6
	c-0.4-0.3-1.2-0.5-1.8-0.5h-1.3h-0.6c-1.2,0-2.1,1-2.1,2.1v9.9c0,1,0.8,1.8,1.8,1.8l0,0c0.7,0,1.4-0.5,1.7-1.2l1.5-4.3
	c0.1-0.3,0.4-0.5,0.7-0.5h1c0.2,0,0.5,0.1,0.6,0.3l0.5,0.8c0.3,0.4,0.7,0.7,1.2,0.7h1c0.5,0,0.9-0.2,1.2-0.7l0.5-0.8
	c0.1-0.2,0.4-0.3,0.6-0.3h1.1c0.3,0,0.6,0.2,0.7,0.5l1.5,4.3c0.3,0.7,0.9,1.2,1.7,1.2l0,0c1,0,1.8-0.8,1.8-1.8v-9.9
	C-988.6,695.5-989.6,694.7-990.8,694.7z M-1004,700.2c-0.9,0-1.6-0.7-1.6-1.6s0.7-1.6,1.6-1.6s1.6,0.7,1.6,1.6
	S-1003.1,700.2-1004,700.2z M-994,699c-0.4,0-0.7-0.3-0.7-0.7c0-0.4,0.3-0.7,0.7-0.7s0.7,0.3,0.7,0.7
	C-993.3,698.7-993.6,699-994,699z M-992.1,700.7c-0.4,0-0.7-0.3-0.7-0.7s0.3-0.7,0.7-0.7c0.4,0,0.7,0.3,0.7,0.7
	S-991.7,700.7-992.1,700.7z M-992.1,697.5c-0.4,0-0.7-0.3-0.7-0.7c0-0.4,0.3-0.7,0.7-0.7c0.4,0,0.7,0.3,0.7,0.7
	C-991.4,697.2-991.7,697.5-992.1,697.5z M-990.5,699c-0.4,0-0.7-0.3-0.7-0.7c0-0.4,0.3-0.7,0.7-0.7s0.7,0.3,0.7,0.7
	C-989.8,698.8-990.1,699-990.5,699z"/>
</svg>
