<svg width="512" height="512" viewBox="0 0 512 512" fill="none" xmlns="http://www.w3.org/2000/svg">
<path fill-rule="evenodd" clip-rule="evenodd" d="M84.4624 425.301V86.393C84.4624 72.2107 76.9089 63.1184 70.0112 54.8156C64.4844 48.1629 59.3787 42.0171 58.9169 34.1659C57.8602 16.2032 65.8177 16.1047 72.2649 16.0249C72.7453 16.019 73.2174 16.0131 73.6767 16H250.795C279.179 16 355.817 23.3799 398.961 55.1703C442.105 86.9607 458 128.402 458 176.655C458 224.908 441.537 271.459 392.716 308.926C365.202 330.041 303.59 344.122 272.367 344.122H208.786V406C208.786 422.334 208.786 429.892 211.354 436.444C213.565 442.087 217.682 446.983 225.343 456.096L225.344 456.098C227.028 458.1 228.882 460.306 230.926 462.769C248.637 484.114 235.656 494.37 226.384 496.262H75.9471C50.4013 496.262 56.7159 472.482 66.8642 461.066C75.9475 450.847 84.4624 437.791 84.4624 425.301ZM360.5 175C360.5 77.7998 283.5 62 238 62H209V296H250L250.263 296C252.536 296 255.52 296 259.043 295.867C266.918 295.567 277.488 294.597 288.836 291.457C321.452 282.431 360.5 255.479 360.5 175Z" fill="#007BE4"/>
<path d="M209 296L209 344L276 344C271.153 317.949 251.189 296 209 296Z" fill="url(#paint0_radial_1139_233)"/>
<path d="M122 62H209V435V435C160.951 435 122 396.049 122 348V62Z" fill="url(#paint1_linear_1139_233)"/>
<defs>
<radialGradient id="paint0_radial_1139_233" cx="0" cy="0" r="1" gradientUnits="userSpaceOnUse" gradientTransform="translate(167 379) rotate(-16.8687) scale(102.232 79.292)">
<stop stop-color="white"/>
<stop offset="1" stop-color="#007BE4" stop-opacity="0.6"/>
</radialGradient>
<linearGradient id="paint1_linear_1139_233" x1="166" y1="-163.731" x2="166" y2="435" gradientUnits="userSpaceOnUse">
<stop stop-color="white"/>
<stop offset="1" stop-color="#007BE4" stop-opacity="0.1"/>
</linearGradient>
</defs>
</svg>
