<svg width="800" height="800" viewBox="0 0 800 800" fill="none" xmlns="http://www.w3.org/2000/svg">
<g clip-path="url(#clip0_1165_12)">
<path fill-rule="evenodd" clip-rule="evenodd" d="M555.9 7.65462L552.139 98.1241C552.081 99.5148 552.51 100.882 553.351 101.991C555.349 104.626 559.105 105.141 561.739 103.143L596.882 76.485L626.564 99.8674C627.676 100.744 629.063 101.197 630.478 101.148C633.783 101.032 636.368 98.2599 636.253 94.9553L633.036 2.83366L677.102 0.0795249C699.226 -1.3032 718.281 15.5106 719.664 37.6343C719.716 38.4678 719.742 39.3027 719.742 40.1379V758.166C719.742 780.333 701.772 798.302 679.606 798.302C679.005 798.302 678.405 798.289 677.805 798.262L142.063 774.2C121.198 773.263 104.539 756.481 103.755 735.609L79.0256 76.6726C78.2089 54.9106 94.8953 36.4674 116.63 35.109L555.9 7.65462ZM573.006 298.054C558.886 309.022 453.702 316.507 453.702 300.891C455.925 241.306 429.249 238.693 414.428 238.693C400.349 238.693 376.636 242.949 376.636 274.87C376.636 307.399 411.29 325.763 451.964 347.317C509.744 377.937 579.675 414.996 579.675 508.247C579.675 597.625 507.055 646.998 414.428 646.998C318.837 646.998 235.301 608.323 244.736 474.24C248.441 458.495 369.967 462.237 369.967 474.24C368.485 529.57 381.082 545.843 412.946 545.843C437.4 545.843 448.515 532.365 448.515 509.666C448.515 475.313 412.409 455.042 370.874 431.722C314.634 400.147 248.441 362.983 248.441 277.708C248.441 192.585 306.981 135.837 411.464 135.837C515.947 135.837 573.006 191.716 573.006 298.054Z" fill="black"/>
</g>
<defs>
<clipPath id="clip0_1165_12">
<rect width="800" height="800" fill="white"/>
</clipPath>
</defs>
</svg>
