<svg width="469" height="368" viewBox="0 0 469 368" fill="none" xmlns="http://www.w3.org/2000/svg">
<rect x="85" y="22" width="81" height="16" rx="2" fill="#007BE4"/>
<rect x="68" y="308" width="82" height="16" rx="2" fill="#007BE4"/>
<rect x="112" y="154" width="81" height="16" rx="2" fill="#007BE4"/>
<rect x="241" y="66" width="81" height="16" rx="2" fill="#007BE4"/>
<rect x="90" y="88" width="81" height="16" rx="2" fill="#007BE4"/>
<rect x="68" y="264" width="59" height="16" rx="2" fill="#007BE4"/>
<rect x="68" y="44" width="82" height="16" rx="2" fill="#F479FF"/>
<rect x="90" y="286" width="48" height="16" rx="2" fill="#F479FF"/>
<rect x="324" y="22" width="145" height="16" rx="2" fill="#FFC700"/>
<rect x="159" y="198" width="146" height="16" rx="2" fill="#FFC700"/>
<rect x="137" y="242" width="61" height="16" rx="2" fill="#FFC700"/>
<rect x="172" y="22" width="146" height="16" rx="2" fill="#98A3B2"/>
<rect x="90" y="66" width="145" height="16" rx="2" fill="#98A3B2"/>
<rect x="112" y="198" width="41" height="16" rx="2" fill="#98A3B2"/>
<rect x="144" y="286" width="93" height="16" rx="2" fill="#98A3B2"/>
<rect x="90" y="242" width="42" height="16" rx="2" fill="#98A3B2"/>
<rect x="199" y="154" width="146" height="16" rx="2" fill="#98A3B2"/>
<rect x="90" y="110" width="145" height="16" rx="2" fill="#98A3B2"/>
<rect x="90" y="132" width="80" height="16" rx="2" fill="#98A3B2"/>
<rect x="90" y="220" width="80" height="16" rx="2" fill="#98A3B2"/>
<rect x="176" y="132" width="80" height="16" rx="2" fill="#59B3FF"/>
<rect x="243" y="286" width="80" height="16" rx="2" fill="#59B3FF"/>
<rect x="156" y="44" width="226" height="16" rx="2" fill="#98A3B2"/>
<rect x="112" y="176" width="270" height="16" rx="2" fill="#00B769"/>
<rect x="46" y="22" width="33" height="16" rx="2" fill="#98A3B2"/>
<rect x="46" y="330" width="33" height="16" rx="2" fill="#98A3B2"/>
<rect x="24" width="95" height="16" rx="2" fill="#98A3B2"/>
<rect x="24" y="22" width="2" height="324" rx="1" fill="white"/>
<rect x="46" y="44" width="2" height="280" rx="1" fill="white"/>
<rect x="68" y="66" width="2" height="192" rx="1" fill="white"/>
<rect x="90" y="154" width="2" height="60" rx="1" fill="white"/>
<rect x="68" y="286" width="2" height="16" rx="1" fill="white"/>
<rect width="4" height="16" rx="2" fill="#59B3FF"/>
<rect y="88" width="4" height="16" rx="2" fill="#59B3FF"/>
<rect y="176" width="4" height="16" rx="2" fill="#59B3FF"/>
<rect y="264" width="4" height="16" rx="2" fill="#59B3FF"/>
<rect y="22" width="4" height="16" rx="2" fill="#59B3FF"/>
<rect y="110" width="4" height="16" rx="2" fill="#59B3FF"/>
<rect y="198" width="4" height="16" rx="2" fill="#59B3FF"/>
<rect y="286" width="4" height="16" rx="2" fill="#59B3FF"/>
<rect y="44" width="4" height="16" rx="2" fill="#59B3FF"/>
<rect y="132" width="4" height="16" rx="2" fill="#59B3FF"/>
<rect y="220" width="4" height="16" rx="2" fill="#59B3FF"/>
<rect y="308" width="4" height="16" rx="2" fill="#59B3FF"/>
<rect y="352" width="4" height="16" rx="2" fill="#59B3FF"/>
<rect y="66" width="4" height="16" rx="2" fill="#59B3FF"/>
<rect y="154" width="4" height="16" rx="2" fill="#59B3FF"/>
<rect y="242" width="4" height="16" rx="2" fill="#59B3FF"/>
<rect y="330" width="4" height="16" rx="2" fill="#59B3FF"/>
<rect x="24" y="352" width="49" height="16" rx="2" fill="#98A3B2"/>
</svg>
