<?xml version="1.0" encoding="utf-8"?>
<!-- Generator: Adobe Illustrator 22.1.0, SVG Export Plug-In . SVG Version: 6.00 Build 0)  -->
<svg version="1.1" id="Layer_1" xmlns="http://www.w3.org/2000/svg" xmlns:xlink="http://www.w3.org/1999/xlink" x="0px" y="0px"
	 viewBox="0 0 153.2 54.4" style="enable-background:new 0 0 153.2 54.4;" xml:space="preserve">
<style type="text/css">
	.st0{fill:#FFFFFF;}
</style>
<g>
	<g>
		<g>
			<g>
				<g>
					<path class="st0" d="M64.8,26.7h2.1c3.5,0,3.9-2.1,3.9-7.4c0-5.4-0.4-7.4-3.9-7.4h-2.1V26.7z M67.7,8.1c6,0,7.9,3.2,7.9,11.2
						c0,8.1-1.9,11.2-7.9,11.2H60V8.1H67.7z M78.1,8.1h12.1V12h-7.4v4.8h6.8v3.9h-6.8v6h7.4v4H78.1V8.1z M103.1,21.7l-2.2-9.3
						l-2.4,9.3H103.1z M104.1,25.6h-6.5l-1.2,5h-4.7L98,8.1h6l6.2,22.5h-4.9L104.1,25.6z M111.7,8.1h4.7v9.8l5.8-9.8h4.9l-6.5,10.3
						l6.5,12.1h-5.4l-5.3-10.9v10.9h-4.7V8.1z M129.2,8.1h4.6v22.5h-4.6V8.1z M140.8,15.9v14.7h-4.1V8.1h5.6l5.4,13.8V8.1h4.1v22.5
						h-5.1L140.8,15.9z"/>
				</g>
			</g>
			<g>
				<path class="st0" d="M67.2,43v-7.7c0-0.1,0.1-0.1,0.2-0.2c0.1-0.1,0.3-0.1,0.4-0.1c0.2,0,0.3-0.1,0.5-0.1c0.2,0,0.3,0,0.4,0
					c0.1,0,0.3,0.1,0.4,0.2c0.1,0.1,0.1,0.2,0.1,0.3v7.7c0,0.8-0.1,1.5-0.3,2.1c-0.2,0.6-0.5,1-0.8,1.4c-0.4,0.4-0.8,0.6-1.4,0.7
					c-0.6,0.1-1.2,0.2-2,0.2h-0.1c-0.7,0-1.4-0.1-2-0.2c-0.6-0.1-1-0.4-1.4-0.7c-0.4-0.4-0.7-0.8-0.8-1.4c-0.2-0.6-0.3-1.3-0.3-2.1
					v-7.8c0-0.1,0.1-0.1,0.2-0.2c0.1-0.1,0.3-0.1,0.4-0.1c0.2,0,0.3-0.1,0.5-0.1c0.2,0,0.3,0,0.4,0c0.1,0,0.3,0.1,0.4,0.2
					c0.1,0.1,0.2,0.2,0.2,0.3V43c0,0.5,0,0.9,0.1,1.3c0.1,0.3,0.2,0.6,0.4,0.8c0.2,0.2,0.4,0.4,0.8,0.5c0.3,0.1,0.7,0.2,1.2,0.2h0.1
					c0.5,0,0.9-0.1,1.2-0.2c0.3-0.1,0.6-0.3,0.8-0.5c0.2-0.2,0.3-0.5,0.4-0.8C67.1,43.9,67.2,43.4,67.2,43z"/>
				<path class="st0" d="M79,43.7v-8.5c0-0.1,0.1-0.1,0.2-0.2c0.1,0,0.3-0.1,0.4-0.1c0.2,0,0.3,0,0.5-0.1c0.2,0,0.3,0,0.4,0
					c0.3,0,0.4,0.2,0.4,0.5v11.7c0,0.1-0.1,0.2-0.2,0.3c-0.1,0.1-0.2,0.1-0.3,0.1c-0.1,0-0.2,0-0.4,0c-0.2,0-0.3,0-0.5-0.1
					c-0.2,0-0.3-0.1-0.4-0.1c-0.1,0-0.2-0.1-0.3-0.2l-5.5-8.5V47c0,0.1-0.1,0.2-0.2,0.3c-0.1,0.1-0.2,0.1-0.4,0.1
					c-0.1,0-0.2,0-0.4,0c-0.2,0-0.3,0-0.5-0.1c-0.2,0-0.3-0.1-0.4-0.1c-0.1-0.1-0.2-0.1-0.2-0.2V35.2c0-0.1,0.1-0.1,0.2-0.2
					c0.1-0.1,0.3-0.1,0.4-0.1c0.2,0,0.3,0,0.5-0.1c0.2,0,0.3,0,0.4,0c0.1,0,0.2,0,0.3,0.1c0.1,0.1,0.2,0.2,0.2,0.2L79,43.7z"/>
				<path class="st0" d="M85.2,47c0,0.1-0.1,0.2-0.2,0.3c-0.1,0.1-0.2,0.1-0.4,0.1c-0.1,0-0.2,0-0.4,0c-0.2,0-0.3,0-0.5-0.1
					c-0.2,0-0.3-0.1-0.4-0.1c-0.1-0.1-0.2-0.1-0.2-0.2V35.2c0-0.1,0.1-0.1,0.2-0.2c0.1-0.1,0.3-0.1,0.4-0.1c0.2,0,0.3,0,0.5-0.1
					c0.2,0,0.3,0,0.4,0c0.1,0,0.3,0,0.4,0.1c0.1,0.1,0.2,0.2,0.2,0.3V47z"/>
				<path class="st0" d="M91.8,44l2.6-8.8c0.2-0.2,0.3-0.3,0.6-0.3c0.2,0,0.5-0.1,0.7-0.1c0.1,0,0.2,0,0.3,0c0.1,0,0.2,0,0.3,0.1
					c0.1,0,0.1,0.1,0.2,0.2c0,0.1,0,0.2,0,0.3l-3.9,11.8c0,0.1-0.1,0.2-0.2,0.2c-0.1,0-0.2,0.1-0.3,0.1c-0.4,0-0.7,0-0.9-0.1
					c-0.3,0-0.4-0.1-0.5-0.2l-3.9-11.8c0-0.1,0-0.2,0-0.3c0-0.1,0.1-0.1,0.2-0.2c0.1,0,0.1-0.1,0.2-0.1c0.1,0,0.2,0,0.2,0
					c0.2,0,0.3,0,0.5,0c0.2,0,0.3,0,0.5,0.1c0.1,0,0.3,0.1,0.4,0.1c0.1,0.1,0.2,0.1,0.2,0.2l2.6,8.7c0,0.1,0.1,0.3,0.1,0.4
					s0,0.3,0.1,0.4c0-0.1,0-0.3,0-0.4S91.7,44.2,91.8,44z"/>
				<path class="st0" d="M98,47V35.5c0-0.1,0.1-0.3,0.2-0.3c0.1-0.1,0.2-0.1,0.4-0.1h6.8c0.1,0,0.2,0.1,0.3,0.2
					c0.1,0.1,0.1,0.2,0.1,0.3c0,0.1,0,0.2,0,0.4s0,0.3-0.1,0.4c0,0.1-0.1,0.3-0.1,0.4c0,0.1-0.1,0.2-0.2,0.2h-5.4v3.3h4.7
					c0.1,0,0.2,0,0.3,0.1c0.1,0.1,0.1,0.2,0.1,0.3c0,0.1,0,0.2,0,0.4c0,0.2,0,0.3-0.1,0.5c0,0.1-0.1,0.3-0.1,0.4
					c0,0.1-0.1,0.2-0.2,0.2h-4.7v3.5h5.3c0.1,0,0.2,0,0.3,0.1c0.1,0.1,0.1,0.2,0.1,0.3c0,0.1,0,0.2,0,0.4c0,0.1,0,0.3-0.1,0.4
					c0,0.1-0.1,0.3-0.1,0.4c0,0.1-0.1,0.2-0.2,0.2h-6.7c-0.2,0-0.3,0-0.5-0.1C98.1,47.1,98,47,98,47z"/>
				<path class="st0" d="M108,47.1V35.5c0-0.1,0.1-0.2,0.2-0.3c0.1-0.1,0.2-0.1,0.4-0.1h3.8c0.8,0,1.4,0.1,2,0.2
					c0.5,0.1,1,0.3,1.4,0.6c0.4,0.3,0.6,0.7,0.8,1.1c0.2,0.5,0.2,1.1,0.2,1.8v0.4c0,0.5,0,1-0.1,1.4c-0.1,0.4-0.2,0.7-0.4,1
					c-0.2,0.3-0.4,0.5-0.7,0.7c-0.3,0.2-0.7,0.3-1.1,0.4l2.4,4.1c0.1,0.2,0.2,0.4,0.2,0.5c0,0.1,0,0.1-0.1,0.2
					c-0.1,0-0.1,0.1-0.2,0.1c-0.1,0-0.1,0-0.2,0c-0.1,0-0.1,0-0.2,0c-0.1,0-0.2,0-0.4,0c-0.2,0-0.3,0-0.5-0.1
					c-0.2,0-0.3-0.1-0.4-0.1c-0.1-0.1-0.2-0.1-0.3-0.2l-2.5-4.3H110v4.3c0,0.1-0.1,0.2-0.2,0.3s-0.2,0.1-0.4,0.1c-0.1,0-0.2,0-0.4,0
					c-0.2,0-0.3,0-0.5-0.1c-0.2,0-0.3-0.1-0.4-0.1C108.1,47.3,108,47.2,108,47.1z M112.4,36.9H110V41h2.4c0.5,0,0.8,0,1.1-0.1
					c0.3-0.1,0.5-0.1,0.6-0.3c0.2-0.1,0.3-0.3,0.3-0.6s0.1-0.6,0.1-0.9v-0.4c0-0.4,0-0.7-0.1-0.9c-0.1-0.2-0.2-0.4-0.3-0.6
					c-0.2-0.1-0.4-0.2-0.6-0.3C113.2,36.9,112.9,36.9,112.4,36.9z"/>
				<path class="st0" d="M118.9,45.4c0.1,0,0.2,0.1,0.4,0.1c0.2,0,0.4,0.1,0.6,0.1c0.2,0,0.5,0.1,0.8,0.1s0.6,0.1,0.9,0.1
					c0.3,0,0.6,0,0.9-0.1c0.3-0.1,0.5-0.1,0.8-0.3c0.2-0.1,0.4-0.3,0.5-0.5c0.1-0.2,0.2-0.4,0.2-0.7c0-0.4-0.1-0.8-0.4-1
					c-0.3-0.3-0.6-0.6-1-0.8c-0.4-0.3-0.8-0.5-1.3-0.8c-0.5-0.3-0.9-0.6-1.3-0.9c-0.4-0.3-0.7-0.7-1-1.2c-0.3-0.5-0.4-1-0.4-1.7
					c0-0.6,0.1-1,0.3-1.4c0.2-0.4,0.5-0.7,0.8-0.9c0.4-0.2,0.8-0.4,1.3-0.5c0.5-0.1,1-0.2,1.6-0.2c0.1,0,0.3,0,0.6,0
					c0.3,0,0.5,0,0.8,0.1c0.3,0,0.6,0.1,0.8,0.1c0.3,0,0.5,0.1,0.7,0.2c0.2,0.1,0.3,0.1,0.3,0.2c0,0.1,0,0.2,0,0.4
					c0,0.3-0.1,0.5-0.2,0.7c-0.1,0.2-0.2,0.3-0.4,0.2c-0.3-0.1-0.6-0.1-1-0.2c-0.4-0.1-0.8-0.1-1.2-0.1c-0.7,0-1.3,0.1-1.7,0.3
					c-0.4,0.2-0.7,0.5-0.7,1c0,0.4,0.1,0.7,0.4,1c0.3,0.3,0.6,0.5,1,0.8c0.4,0.2,0.8,0.5,1.3,0.7c0.5,0.3,0.9,0.6,1.3,0.9
					c0.4,0.3,0.7,0.8,1,1.2c0.3,0.5,0.4,1.1,0.4,1.8c0,0.6-0.1,1.2-0.4,1.6c-0.2,0.4-0.6,0.7-1,1c-0.4,0.2-0.9,0.4-1.4,0.5
					c-0.5,0.1-1.1,0.1-1.6,0.1c-0.3,0-0.5,0-0.8,0c-0.3,0-0.6,0-0.8-0.1c-0.3,0-0.5-0.1-0.8-0.1c-0.2,0-0.5-0.1-0.6-0.2
					c-0.2-0.1-0.3-0.1-0.3-0.2s0-0.2,0-0.4c0-0.3,0.1-0.6,0.2-0.8C118.6,45.5,118.7,45.4,118.9,45.4z"/>
				<path class="st0" d="M130.3,47c0,0.1-0.1,0.2-0.2,0.3c-0.1,0.1-0.2,0.1-0.4,0.1c-0.1,0-0.2,0-0.4,0c-0.2,0-0.3,0-0.5-0.1
					c-0.2,0-0.3-0.1-0.4-0.1c-0.1-0.1-0.2-0.1-0.2-0.2V35.2c0-0.1,0.1-0.1,0.2-0.2c0.1-0.1,0.3-0.1,0.4-0.1c0.2,0,0.3,0,0.5-0.1
					c0.2,0,0.3,0,0.4,0c0.1,0,0.3,0,0.4,0.1c0.1,0.1,0.2,0.2,0.2,0.3V47z"/>
				<path class="st0" d="M137.6,36.9V47c0,0.1-0.1,0.2-0.2,0.3c-0.1,0.1-0.2,0.1-0.4,0.1c-0.1,0-0.2,0-0.4,0c-0.2,0-0.3,0-0.5-0.1
					c-0.2,0-0.3-0.1-0.4-0.1c-0.1-0.1-0.2-0.1-0.2-0.2V36.9h-3.1c-0.1,0-0.2,0-0.3-0.1c-0.1-0.1-0.1-0.2-0.1-0.3c0-0.1,0-0.2,0-0.4
					c0-0.1,0-0.3,0.1-0.4c0-0.1,0.1-0.3,0.1-0.4c0-0.1,0.1-0.2,0.2-0.2h8.4c0.1,0,0.2,0,0.3,0.1c0.1,0.1,0.1,0.2,0.1,0.3
					c0,0.1,0,0.2,0,0.4c0,0.2,0,0.3-0.1,0.4c0,0.1-0.1,0.3-0.1,0.4c0,0.1-0.1,0.2-0.2,0.2H137.6z"/>
				<path class="st0" d="M148.5,42.8V47c0,0.1-0.1,0.2-0.2,0.3c-0.1,0.1-0.2,0.1-0.4,0.1c-0.1,0-0.2,0-0.4,0c-0.2,0-0.3,0-0.5-0.1
					c-0.2,0-0.3-0.1-0.4-0.1c-0.1-0.1-0.2-0.1-0.2-0.2v-4.3l-3.7-7.2c-0.1-0.3-0.1-0.4-0.1-0.5c0.1-0.1,0.3-0.2,0.5-0.2
					c0.2,0,0.3,0,0.5,0c0.2,0,0.3,0,0.5,0c0.1,0,0.3,0.1,0.4,0.1c0.1,0,0.2,0.1,0.2,0.2l2.7,5.6l2.7-5.5c0-0.1,0.1-0.1,0.2-0.2
					c0.1,0,0.2-0.1,0.4-0.1c0.1,0,0.3,0,0.5,0c0.2,0,0.3,0,0.5,0c0.3,0,0.4,0.1,0.5,0.2c0.1,0.1,0.1,0.3-0.1,0.6L148.5,42.8z"/>
			</g>
		</g>
		<g>
			<g>
				<circle class="st0" cx="26.9" cy="27.2" r="25.4"/>
				<g>
					<path d="M13.9,14v17.9c0,7.2,5.8,13.1,13.1,13.1C34.2,44.9,40,39,40,31.8V14H13.9z M16,34.8l1.7-2.8l1.7,2.8H16z M21.5,34.8
						l-2.7-4.7l1.3-2.2l3.9,6.9H21.5z M26.2,34.8l-5.1-8.8l1.3-2.2l6.2,10.9H26.2z M30.8,34.8l-7.4-12.8l1.2-2.1l8.5,14.9H30.8z
						 M35.4,34.8l-9.7-16.8l1.3-2.1l10.9,18.9H35.4z"/>
				</g>
			</g>
		</g>
	</g>
</g>
</svg>
