<?xml version="1.0" encoding="utf-8"?>
<!-- Generator: Adobe Illustrator 22.1.0, SVG Export Plug-In . SVG Version: 6.00 Build 0)  -->
<svg version="1.1" id="Layer_1" xmlns="http://www.w3.org/2000/svg" xmlns:xlink="http://www.w3.org/1999/xlink" x="0px" y="0px"
	 viewBox="0 0 624.8 382.8" style="enable-background:new 0 0 624.8 382.8;" xml:space="preserve">
<style type="text/css">
	.st0{fill:#FFFFFF;}
</style>
<g>
	<path class="st0" d="M511.8,125.6c-27.4,0-44.4,7.1-54.8,14.7c-0.7,0.5-1.7,0-1.7-0.9v-104h-55.8v299.3h56.2V222.8
		c0-34.4,17.6-49.2,38.9-49.2c25,0,37.7,16,37.7,43.9v117.2h57v-125C589.3,156.8,560.2,125.6,511.8,125.6"/>
	<path class="st0" d="M339.3,347.4h7.7l16.3-41h-8l-6.4,17.3l-6.9-17.3h-8.1l11.2,26.8L339.3,347.4z M289.5,334.5h7.7v-15.3
		c0-4.7,2.1-6.7,5-6.7c3.4,0,4.9,2.2,4.9,5.9v16.1h7.8v-15.3c0-4.7,2.1-6.7,5-6.7c3.4,0,4.9,2.2,4.9,5.9v16.1h7.8v-17.1
		c0-7.2-3.5-11.5-10.7-11.5c-3.6,0-6.8,1.7-8.7,4.4c-1.7-2.9-4.7-4.4-8.6-4.4c-3.1,0-5.7,1.3-7.5,3.5v-3h-7.6V334.5z M272,312.6
		c3.3,0,5.7,1.5,6.7,4.4h-13.6C266.3,314.4,268.7,312.6,272,312.6 M272.2,335c6.2,0,10.7-3.1,13.1-7.5l-6.1-3.6
		c-1.2,2.7-3.8,4.4-6.9,4.4c-4,0-6.6-2-7.5-5.1h21.6v-2.8c0-8.1-5.9-14.5-14.5-14.5c-8.1,0-14.6,6.5-14.6,14.6
		C257.4,328.5,263.4,335,272.2,335 M239.7,328c-4.3,0-7.5-3.3-7.5-7.6c0-4.3,3.3-7.5,7.5-7.5c4.1,0,7.2,3.4,7.2,7.5
		C246.8,324.5,243.8,328,239.7,328 M238.1,335c3.6,0,6.6-1.5,8.5-3.7v3.1h7.7v-40.9h-7.7v15.6c-1.8-2-4.7-3.3-8.4-3.3
		c-6.3,0-13.6,4.7-13.6,14.6C224.6,330.3,232.2,335,238.1,335 M206.9,328c-4.3,0-7.5-3.3-7.5-7.6c0-4.3,3.3-7.5,7.5-7.5
		c4.1,0,7.2,3.4,7.2,7.5C214.1,324.5,211.1,328,206.9,328 M205.4,335c3.6,0,6.6-1.5,8.5-3.7v3.1h7.7v-28h-7.7v2.7
		c-1.8-2-4.7-3.3-8.4-3.3c-6.3,0-13.6,4.7-13.6,14.6C191.9,330.3,199.5,335,205.4,335 M176.7,335c6.4,0,11.3-3.6,13.5-8.9l-6.8-2.9
		c-1.1,2.6-3.6,4.5-6.6,4.5c-4,0-7.2-3.3-7.2-7.3c0-4,3.1-7.3,7.2-7.3c3,0,5.5,1.8,6.6,4.5l6.8-2.9c-2.2-5.2-7.1-8.9-13.5-8.9
		c-8.1,0-14.5,6.5-14.5,14.6C162.2,328.5,168.6,335,176.7,335 M144.5,328c-4.3,0-7.5-3.3-7.5-7.6c0-4.3,3.3-7.5,7.5-7.5
		c4.1,0,7.2,3.4,7.2,7.5C151.6,324.5,148.6,328,144.5,328 M143,335c3.6,0,6.6-1.5,8.5-3.7v3.1h7.7v-28h-7.7v2.7
		c-1.8-2-4.7-3.3-8.4-3.3c-6.3,0-13.6,4.7-13.6,14.6C129.4,330.3,137,335,143,335"/>
	<path class="st0" d="M348.2,268.2c-4.1,0-7.2-3.4-7.2-7.6s3-7.5,7.2-7.5c4.3,0,7.5,3.2,7.5,7.5
		C355.7,264.9,352.4,268.2,348.2,268.2 M349.7,275.2c5.9,0,13.5-4.7,13.5-14.6c0-9.9-7.2-14.6-13.6-14.6c-3.8,0-6.6,1.6-8.4,3.8
		v-3.2h-7.7v40.9h7.7v-15.6C343,274,346,275.2,349.7,275.2 M321.9,243.8h7.7v-7.7h-7.7V243.8z M321.9,274.7h7.7v-28h-7.7V274.7z
		 M292.1,274.7h7.7v-15.3c0-4.7,2.4-6.7,5.3-6.7c3.4,0,5.2,2.2,5.2,6v16h7.8v-17.1c0-7.2-4-11.5-10.6-11.5c-3.2,0-5.9,1.4-7.7,3.6
		v-16h-7.6V274.7z M277.1,275.2c8.1,0.1,11.9-5.3,11.9-9.4c0-6.1-5.4-7.7-10.1-8.7c-4.2-0.8-5.8-1.3-5.8-2.5c0-1.2,1.1-2.3,3.6-2.3
		s4.4,1.2,5.2,3.1l6.8-2.9c-2-3.9-5.6-6.5-11.9-6.5c-7-0.1-11.5,4.1-11.5,8.8c0,6,5,7.7,10.1,8.6c3.3,0.6,6,1.1,6,2.6
		c0,1.3-1.3,2.5-3.9,2.5c-2.7,0-4.9-1.2-5.9-3.8l-7.3,2.9C266.2,272.6,270.3,275.2,277.1,275.2 M244.2,274.7h7.7v-13.2
		c0-5.2,1.8-7.3,5.9-7.3h4.9v-7.5h-3.1c-3.8,0-6.3,1.7-7.7,4.6v-4.6h-7.6V274.7z M226.7,252.8c3.3,0,5.7,1.5,6.7,4.4h-13.6
		C221,254.6,223.5,252.8,226.7,252.8 M226.9,275.2c6.2,0,10.7-3.1,13.1-7.5l-6.1-3.6c-1.2,2.7-3.8,4.4-6.9,4.4c-4,0-6.6-2-7.5-5.1
		h21.6v-2.8c0-8.1-5.9-14.5-14.5-14.5c-8.1,0-14.6,6.5-14.6,14.6C212.1,268.7,218.1,275.2,226.9,275.2 M194.4,268.2
		c-4.3,0-7.5-3.3-7.5-7.6c0-4.3,3.3-7.5,7.5-7.5c4.1,0,7.2,3.4,7.2,7.5S198.5,268.2,194.4,268.2 M192.8,275.2c3.6,0,6.6-1.5,8.5-3.7
		v3.1h7.7v-40.9h-7.7v15.6c-1.8-2-4.7-3.3-8.4-3.3c-6.3,0-13.6,4.7-13.6,14.6C179.3,270.5,186.9,275.2,192.8,275.2 M161.6,268.2
		c-4.3,0-7.5-3.3-7.5-7.6c0-4.3,3.3-7.5,7.5-7.5c4.1,0,7.2,3.4,7.2,7.5S165.8,268.2,161.6,268.2 M160.1,275.2c3.6,0,6.6-1.5,8.5-3.7
		v3.1h7.7v-28h-7.7v2.7c-1.8-2-4.7-3.3-8.4-3.3c-6.3,0-13.6,4.7-13.6,14.6C146.6,270.5,154.2,275.2,160.1,275.2 M129.9,252.8
		c3.3,0,5.7,1.5,6.7,4.4H123C124.2,254.6,126.6,252.8,129.9,252.8 M130.1,275.2c6.2,0,10.7-3.1,13.1-7.5l-6.1-3.6
		c-1.2,2.7-3.8,4.4-6.9,4.4c-4,0-6.6-2-7.5-5.1h21.6v-2.8c0-8.1-5.9-14.5-14.5-14.5c-8.1,0-14.6,6.5-14.6,14.6
		C115.3,268.7,121.3,275.2,130.1,275.2 M104.5,274.7h7.7v-40.9h-7.7V274.7z"/>
	<path class="st0" d="M336.2,214.9h7.7v-15.3c0-4.7,2.4-6.7,5.3-6.7c3.4,0,5.2,2.2,5.2,5.9v16.1h7.8v-17.1c0-7.2-4-11.5-10.6-11.5
		c-3.2,0-5.9,1.4-7.7,3.7v-3.1h-7.6V214.9z M317.3,208.4c-4.3,0-7.5-3.3-7.5-7.6c0-4.3,3.3-7.5,7.5-7.5c4.1,0,7.2,3.4,7.2,7.5
		C324.5,205,321.5,208.4,317.3,208.4 M315.8,215.4c3.6,0,6.6-1.5,8.5-3.7v3.1h7.7v-28h-7.7v2.7c-1.8-2-4.7-3.3-8.4-3.3
		c-6.3,0-13.6,4.7-13.6,14.6C302.3,210.7,309.9,215.4,315.8,215.4 M291.6,184.1h7.7v-7.7h-7.7V184.1z M291.6,214.9h7.7v-28h-7.7
		V214.9z M269.7,214.9h7.7v-13.2c0-5.2,1.8-7.3,5.9-7.3h4.9v-7.5H285c-3.8,0-6.3,1.7-7.7,4.6v-4.6h-7.6V214.9z M250.8,208.4
		c-4.3,0-7.5-3.3-7.5-7.6c0-4.3,3.3-7.5,7.5-7.5c4.1,0,7.2,3.4,7.2,7.5C258,205,255,208.4,250.8,208.4 M249.3,215.4
		c3.6,0,6.6-1.5,8.5-3.7v3.1h7.7v-28h-7.7v2.7c-1.8-2-4.7-3.3-8.4-3.3c-6.3,0-13.6,4.7-13.6,14.6
		C235.8,210.7,243.4,215.4,249.3,215.4 M216.4,193.7h4.8v9c0,9.1,2.9,12.2,11.8,12.2h1.1v-7.2c-4.7,0-5.3-0.7-5.3-5v-8.9h5.3v-6.9
		h-5.3v-10.8l-7.7,4.2v6.6h-4.8V193.7z M205.4,184.1h7.7v-7.7h-7.7V184.1z M205.4,214.9h7.7v-28h-7.7V214.9z M175.5,214.9h7.7v-15.3
		c0-4.7,2.4-6.7,5.3-6.7c3.4,0,5.2,2.2,5.2,5.9v16.1h7.8v-17.1c0-7.2-4-11.5-10.6-11.5c-3.2,0-5.9,1.4-7.7,3.7v-3.1h-7.6V214.9z
		 M156.7,208.4c-4.3,0-7.5-3.3-7.5-7.6c0-4.3,3.3-7.5,7.5-7.5c4.1,0,7.2,3.4,7.2,7.5C163.8,205,160.8,208.4,156.7,208.4
		 M155.2,215.4c3.6,0,6.6-1.5,8.5-3.7v3.1h7.7v-28h-7.7v2.7c-1.8-2-4.7-3.3-8.4-3.3c-6.3,0-13.6,4.7-13.6,14.6
		C141.6,210.7,149.2,215.4,155.2,215.4 M95.5,214.9h7.7v-15.3c0-4.7,2.1-6.7,5-6.7c3.4,0,4.9,2.2,4.9,5.9v16.1h7.8v-15.3
		c0-4.7,2.1-6.7,5-6.7c3.4,0,4.9,2.2,4.9,5.9v16.1h7.8v-17.1c0-7.2-3.5-11.5-10.7-11.5c-3.6,0-6.8,1.7-8.7,4.4
		c-1.7-2.9-4.7-4.4-8.6-4.4c-3.1,0-5.7,1.3-7.5,3.5v-3h-7.6V214.9z M75.9,215.4c3.2,0,5.9-1.4,7.7-3.6v3.1h7.6v-28h-7.7v15.3
		c0,4.7-2.4,6.7-5.3,6.7c-3.4,0-5.2-2.2-5.2-5.9v-16.1h-7.8V204C65.3,211.2,69.3,215.4,75.9,215.4 M35.4,214.9h7.7v-15.3
		c0-4.7,2.4-6.7,5.3-6.7c3.4,0,5.2,2.2,5.2,6v16h7.8v-17.1c0-7.2-4-11.5-10.6-11.5c-3.2,0-5.9,1.4-7.7,3.6v-16h-7.6V214.9z"/>
</g>
</svg>
