<?xml version="1.0" encoding="utf-8"?>
<!-- Generator: Adobe Illustrator 22.1.0, SVG Export Plug-In . SVG Version: 6.00 Build 0)  -->
<svg version="1.1" id="Layer_1" xmlns="http://www.w3.org/2000/svg" xmlns:xlink="http://www.w3.org/1999/xlink" x="0px" y="0px"
	 viewBox="0 0 841.9 409.3" style="enable-background:new 0 0 841.9 409.3;" xml:space="preserve">
<style type="text/css">
	.st0{fill-rule:evenodd;clip-rule:evenodd;fill:#FFFFFF;}
	.st1{fill:#FFFFFF;}
	.st2{fill:#FFFFFF;stroke:#FFFFFF;stroke-width:0.1134;}
</style>
<g>
	<rect x="530.4" y="12" class="st0" width="303.3" height="380.8"/>
	<path d="M685.5,129.9h4.1v7.5c0,0,0.3,0.8,1.3,0.8c1.2,0,1.4-0.8,1.4-0.8v-6.1h5.8v6.4l3-0.4v-4.6h5.3v5c0,0,2.8,0.8,3.5,3.3
		c1.2,4-2.5,5.5-2.5,5.5s0.6,0.6,1.7,1.5c1.1,0.9,2.2,2.6,4,8.5c1.8,5.9,5.9,6.1,5.9,6.1s4.8-4,1.3-10.9c-3.5-6.9-8.5-9.2-6.6-17.2
		c0,0,2.6-6.8,7.1-11c4.5-4.2,7.9-5.8,7.9-5.8s-2,3.8-0.4,6.9c1.6,3.1,6.3,5.9,8.5,8.7c2.2,2.8,4.7,8.8,1.9,15.7
		c-2.8,6.9-8.1,11.5-11.5,13.2c-3.4,1.6-6.8,1.5-6.8,1.5s3.3,3.8,10.9,4.8c9.7,1.4,16.2-4.9,16.2-4.9s-5.4,2.1-7.6,2.2
		c-3.6,0.2-6.5-3-6.5-3s1-7.5,6.1-10.5c5.1-3,11.5-1.7,14.2,2.7c0,0,7.3,7.2,0.6,19c0,0-1.2,3.1-3.4,5.3c-2.2,2.2-5.4,4.2-5.4,4.2
		s6.2,7.4,6.2,14.3c0.1,9.4-3.9,14.1-3.9,14.1s7.3,6,6.5,14.5c-0.8,8.5-5.4,12.1-5.6,15.2c-0.2,3.1,0.7,4.9,1.1,5.2
		c0.4,0.3-10.4-1.8-14.7-7.8c-4.3-5.9-4.1-5.5-4.1-5.5s-1.7,0.8-2,3.4s-0.2,4.1,0.2,4.7c0.4,0.6,0.5,0.6,0.5,0.6s2.1-3.2,4-2.2
		c1.9,1,3.8,6.5,1.9,9.5c-1.8,2.9-4.1,4-5.2,4.3c-1.2,0.3-1.8,0.7-1.8,0.7l14.5,14.4c0,0-21.6,37.5-55.5,37.5h-3.3
		c-33.9,0-56.2-37.5-56.2-37.5l15.2-14.4c0,0-0.6-0.4-1.8-0.7c-1.2-0.3-3.4-1.4-5.2-4.3c-1.8-2.9,0-8.5,1.9-9.5c1.9-1,4,2.2,4,2.2
		s0.2,0,0.5-0.6c0.4-0.6,0.5-2.2,0.2-4.7c-0.3-2.5-2-3.4-2-3.4s0.2-0.5-4.1,5.5c-4.3,5.9-15.1,8.1-14.7,7.8c0.4-0.3,1.3-2.2,1.1-5.2
		c-0.2-3.1-4.8-6.6-5.6-15.2c-0.8-8.5,6.5-14.5,6.5-14.5s-4-4.7-3.9-14.1c0.1-6.9,6.2-14.3,6.2-14.3s-3.2-2-5.4-4.2
		c-2.1-2.2-3.4-5.3-3.4-5.3c-6.7-11.9,0.6-19,0.6-19c2.7-4.4,9.1-5.7,14.2-2.7c5.1,3,6.1,10.5,6.1,10.5s-2.9,3.2-6.5,3
		c-2.2-0.1-7.6-2.2-7.6-2.2s6.5,6.3,16.2,4.9c7.6-1.1,10.9-4.8,10.9-4.8s-3.4,0.2-6.8-1.5c-3.4-1.6-8.7-6.2-11.5-13.2
		c-2.8-6.9-0.3-12.9,1.9-15.7c2.2-2.8,6.9-5.6,8.5-8.7c1.6-3.1-0.4-6.9-0.4-6.9s3.4,1.5,7.8,5.8c4.5,4.2,7.1,11,7.1,11
		c1.9,7.9-3.1,10.2-6.6,17.2c-3.5,6.9,1.3,10.9,1.3,10.9s4.1-0.2,5.9-6.1c1.9-5.8,2.9-7.5,4-8.5c1.1-0.9,1.7-1.5,1.7-1.5
		s-3.6-1.5-2.5-5.5c0.7-2.5,3.5-3.3,3.5-3.3v-5h5.3v4.6l3.1,0.4v-6.4h5.8v6.1c0,0,0.3,0.8,1.3,0.8c0.9,0,1.2-0.9,1.2-0.9v-7.5h4.3
		H685.5z"/>
	<path class="st1" d="M688.3,283c23.2-2.9,36.4-28.7,36.4-28.7s-1.2-1.1-2.5-2.5c-1.2-1.4-2.7-5.3-2.7-5.3s-4.5,10.7-10.6,18.8
		c-6.2,8.2-14.2,11.4-14.2,11.4v-52.6H725c0,0,0.3-4.2,1.5-10.2c1.2-6,6.8-9.7,6.8-9.7l3.2,2.6c0,0,1.4-1.2,2-2.2
		c0.6-0.9,1.4-4.6,1.4-4.6l-3.4,1.5c0,0,1.4-1.7,2.3-6.2c0.9-4.5-2.3-7.7-2.3-7.7s-0.9,4.2-3.1,8.9c-2.2,4.8-8.2,7.1-8.2,7.1v5.5
		h-39.7h0.2h-39.7v-5.5c0,0-6-2.3-8.2-7.1c-2.2-4.8-3.1-8.9-3.1-8.9s-3.2,3.2-2.3,7.7c0.9,4.5,2.3,6.2,2.3,6.2l-3.4-1.5
		c0,0,0.8,3.7,1.4,4.6c0.6,0.9,2,2.2,2,2.2l3.2-2.6c0,0,5.5,3.7,6.8,9.7c1.2,6,1.5,10.2,1.5,10.2h30.3v52.6c0,0-8-3.2-14.2-11.4
		c-6.2-8.2-10.6-18.8-10.6-18.8s-1.5,3.9-2.8,5.3c-1.2,1.4-2.5,2.5-2.5,2.5s13.3,26,36.7,28.7c0,0,1.8,0.1,2.6,0.1
		C686.8,283.1,688.3,283,688.3,283z"/>
	<rect x="701.1" y="109.2" width="5.4" height="4.4"/>
	<rect x="701.1" y="115.8" width="5.3" height="14"/>
	<rect x="665.9" y="109.2" width="5.4" height="4.4"/>
	<rect x="665.9" y="115.8" width="5.3" height="14"/>
	<path class="st1" d="M677.5,141.2c3.9,2.1,4.2,4.7,5.2,4.8c0,0-3.4,0.9-7-2.2c-0.6-0.7-1.3-2-2-2.5l-1.7-1.3
		C674.4,139.9,676.6,140.7,677.5,141.2z"/>
	<path class="st1" d="M694,144.6c0.3,0.9,1.3,1.2,1.9,2c0,0-3.2,0.4-5.1-0.6c-3-1.7-4.6-5-5.7-5.9
		C688.7,140.4,691.8,141.9,694,144.6z"/>
	<path class="st1" d="M672.9,198.8c1.2-2.2,1.5-3.4,1.8-3.9c1-2.6,2.7-8.2,2.7-8.2c2.1-8.4-0.6-14.8-0.6-14.8s1.3-1,2.1-1.3
		c2.1-1.1,3.9-2.1,5.5-3.7c1.2-0.6,2.2-2.4,3-3.5c1.7-2.2,1.9-5.5,1.9-5.5c-1.1,0.1-17,4.4-18.9,4.8c-1.3-1.4-2.4-2.4-4.3-3.6
		c0.8-2.4,1.6-4.5,2.9-7.3c1.5-2.4,2.5-4.6,5.3-5c1.2,0,2,0.6,2.6,1.6c1,2.3-5,9.5-5,9.5s4.7-2.8,5.7-3.2c1.6-0.9,2.9-1.8,5-2.7
		c8.3-2.9,9.5-0.7,10-0.6c1.5,2.4,1.6,5.2,0.6,7.9c-0.5,1.8-0.9,2.6-2.2,4.7c-3.1,4.7-8.6,7.4-8.6,7.4s0.5,0.9,1.3,2.6
		c1.2,3.6-1.3,13.6-1.3,13.6s3.9-1.4,4.2-1.6c3.5-1.3,7-2.3,11-2.5c5.1-0.4,9.3,1.5,13.8,2.1c-0.5-0.8-4.6-9.8-4.6-15.2
		c0.4-2.6,0.3-2.8,0.3-3c-1.2-1.7-3.3-4.4-3.3-4.4s-1.2,0.9-1.8,1.3c-2,1.4-3.9,2.5-6.1,3.3l-1.7,0.8c1.2-1.1,3.4-3.1,4.4-4.6
		c1.9-2.7,2.2-4.1,2.8-5.9c0.6-2.3,0.8-7.6-1.5-10.4c1.7,0.1,3.9,0.3,5.4-0.6c0.2-0.2,0.1-0.5,0.1-0.7c-0.7-0.7-1.4-0.6-2.2-1.2
		c-1-1.2-1.9-2.4-2.6-3.7c2.4,0.6,4.9,1.5,6.3,3.6c0.2,0.6,0.5,1.1,0.6,1.7c1.7,0.6,2.8-1.4,4.1-2c1.7,2.2,4.4,4.6,5.8,7.3
		c1.8,2.7,3,5.7,2.4,9.3c-0.2,1.4-0.1,2.2-1.1,4.5c-1.2,2.9-1.7,3.9-2.9,5.5c-1.3-0.2-2.9-1.3-4.2-1.7c0,0,1.1,13.9,9.5,16
		c1.5,0.5,2.1,0.4,2.9-0.6c0.5-1.6,0.8-4.6-2-7.4l-1.7-1.5c4.9,0.5,5.5,5.2,5.8,6.7c0.2,1.8-0.1,3.1-0.9,4.5h-18.7l-2.7-1.1
		l-2.3-0.4l-2.1-0.2h-1.9c-3.4,0.2-7.8,1.1-13.2,3.8c-1.9,1.3-4.1,2.9-4.8,3.8c-0.1,0.1-0.3,0.2-0.3,0.4L672.9,198.8z"/>
	<path d="M715.3,155.1c1.6,3,0.7,6.8-0.1,10c-0.5,0.6-0.7,1.9-1.8,1.4c-2.4-1.3-5.1-2.5-6.8-5c-2.7-3-0.3-7.7-1.2-11.2
		c-0.2-0.7-1.2-2-1.2-2s3.1-0.6,6.4,0.9C712.9,150.7,714.3,152.7,715.3,155.1z"/>
	<path class="st1" d="M668.4,172.3c1.6,3.9,1.7,5.5,1.5,7.6c0.1,2.4-1.1,7.1-1.1,7.3h-21.1c-1.8-1.9-2.6-5-1.4-7.6
		c1.4-2.4,3.6-4.7,6.2-5.6c-4.5,3.7-3.5,9.9-2.5,10.8c3.7,0,10.5-2.2,10.9-8.1c1-6.9-3.3-11.5-5.9-13.2
		C660.3,165,666,167.3,668.4,172.3z"/>
	<path class="st1" d="M627.6,173.7c1.7,2.3,3.9,4.4,6.1,6.2c1.2,1,4.2,2.7,4.2,2.7l2.4-4c0,0-7.7-2.1-11.2-4.1
		C628.6,174.1,628,174,627.6,173.7z"/>
	<path class="st1" d="M640.2,187.6c2,1.2,4.6,1.7,6.2,3.3c0.4,0.4,0.7,1.1,1.1,1.3c0.4,0.6,0.9,1.3,1,2c0.9,1.4,1,2.8,1.2,4.5
		c-0.9,0.6-2.3-0.6-3.2-1c-3.5-0.9-5.4-3.8-7-6.6c-0.2-1.7-1.1-3.1-1-4.9C639.3,186.5,639.6,187.1,640.2,187.6z"/>
	<rect x="674.3" y="106.2" width="5.9" height="5.3"/>
	<rect x="674.3" y="114.1" width="5.9" height="14.4"/>
	<rect x="692.3" y="106.2" width="5.9" height="5.3"/>
	<rect x="692.3" y="114.1" width="5.9" height="14.4"/>
	<rect x="682.6" y="111.8" width="7" height="15.2"/>
	<rect x="682.6" y="103.1" width="7" height="5.6"/>
	<polygon points="689.8,266.3 693.5,269.1 688.9,269.8 689,274.4 685.6,271.3 682.1,274.2 682.4,269.6 677.9,268.7 681.6,266.1 
		679.6,262 684,263.3 685.9,259.1 687.6,263.4 692.1,262.3 	"/>
	<polygon class="st1" points="691,198.7 695.6,202.2 689.9,203.1 690,208.9 685.7,205 681.3,208.7 681.7,202.9 676.1,201.7 
		680.8,198.5 678.2,193.3 683.7,195 686.1,189.8 688.2,195.1 693.8,193.7 	"/>
	<path class="st1" d="M637.1,139.8c0,0-0.7,8.2,4.4,13c5.1,4.8,3.3,2.4,3.3,2.4s-0.6-4,2.7-7.6c3.2-3.6,6-7.8,6.6-9.9
		c0.6-2.1,0-3.7,0-3.7s-2.5,1.8-3.3,2.2c-0.8,0.3,0.9-3.7-0.6-6c-1.5-2.3-1.8-2.5-1.8-2.5s-0.3,3.1-2,5.5l-0.9,1.3
		c0,0-1-2.4-0.9-3.2c0.1-0.8-2.2,2.1-3.5,4.7c-1.3,2.7-1.5,5.3-1.5,5.3L637.1,139.8z"/>
	<path class="st1" d="M735.2,139.8c0,0,0.7,8.2-4.4,13c-5.1,4.8-3.3,2.4-3.3,2.4s0.6-4-2.7-7.6c-3.2-3.6-6-7.8-6.6-9.9
		c-0.6-2.1,0-3.7,0-3.7s2.5,1.8,3.3,2.2c0.8,0.3-0.6-3.5,0.6-6c0.9-1.7,1.8-2.5,1.8-2.5s0.3,3.1,2,5.5l0.9,1.3c0,0,1.4-1.7,1.3-2.5
		c-0.1-0.8,1.9,1.4,3.1,4c1.3,2.7,1.5,5.3,1.5,5.3L735.2,139.8z"/>
	<path class="st1" d="M638.4,186c0,0-0.2,6,3.2,8.9c3.5,2.9,5.3,3.5,7.2,4.2c1.8,0.7,2.9,0.8,2.9,0.8s-2.2-7-4.6-8.7
		c-2.4-1.6-3.6-1.8-5.4-2.8C640.3,187.7,638.4,186,638.4,186z"/>
	<path class="st1" d="M743.3,173.7c-1.7,2.3-3.9,4.4-6.1,6.2c-1.2,1-4.2,2.7-4.2,2.7l-2.4-4c0,0,7.7-2.1,11.2-4.1
		C742.3,174.1,742.9,174,743.3,173.7z"/>
	<path class="st1" d="M732.5,186c0,0,0.2,6-3.2,8.9c-3.5,2.9-5.3,3.5-7.2,4.2c-1.8,0.7-2.9,0.8-2.9,0.8s2.2-7,4.6-8.7
		c2.4-1.6,3.6-1.8,5.4-2.8C730.7,187.7,732.5,186,732.5,186z"/>
	<path class="st2" d="M638.1,213.5c0,0-1.6,1.2-2.5,2.7c-1.1,1.8-2,4.2-2,4.2s-1.3,0.1-2.4-2.3c-0.5-1-0.5-2.1-0.5-2.1
		s-3.8,2.5-4.3,5.3c-0.1,0.8-0.3,1.3-0.3,1.3s-1.6,0-2.3-1.5c-0.3-0.7-1,1-0.8,3.9c0.2,2.9,1,5.1,2.3,7.2c1.3,2.1,2.5,6.2,2.5,6.2
		s5.9-2.8,8.3-5.9c2.4-3.1,4.3-6,4.6-7.5c0.3-1.5,0.1-3.1,0.1-3.1l-2.1,1c0,0,0.7-5.6,0.6-6.6C639,214.1,638.1,213.5,638.1,213.5z"
		/>
	<path class="st2" d="M733.8,213.5c0,0,1.6,1.2,2.5,2.7c1.1,1.8,2,4.2,2,4.2s1.3,0.1,2.4-2.3c0.5-1,0.5-2.1,0.5-2.1s3.8,2.5,4.3,5.3
		c0.1,0.8,0.3,1.3,0.3,1.3s1.6,0,2.3-1.5c0.3-0.7,1,1,0.8,3.9c-0.2,2.9-1,5.1-2.3,7.2c-1.3,2.1-2.5,6.2-2.5,6.2s-5.9-2.8-8.3-5.9
		c-2.4-3.1-4.3-6-4.6-7.5c-0.3-1.5-0.1-3.1-0.1-3.1l2.1,1c0,0-0.7-5.6-0.6-6.6C732.9,214.1,733.8,213.5,733.8,213.5z"/>
	<polygon class="st1" points="707.1,237.2 712.2,238.1 708.7,241.9 709.4,247.1 704.7,244.8 700,247.2 700.7,242 697,238.2 
		702.2,237.3 704.6,232.7 	"/>
	<path class="st1" d="M642.8,274.3c-0.7,0.5-1.5,1-1.5,1.8l0,0l-2.2-2.8l0,0c0.8,0.2,1.5-0.4,2.2-1l4.9-3.8c0.7-0.5,1.5-1,1.5-1.9
		l0.1,0l2.2,2.8l0,0c-0.8-0.2-1.5,0.4-2.2,1L642.8,274.3z"/>
	<path class="st1" d="M651,287.1c-0.3-0.3-0.6-1.1-0.7-1.6c-0.3-1.1-0.1-1.7,0.2-2.9l1.1-4.8l0,0l-3.1,3.1c-0.7,0.7-1.2,1.2-1.2,2.1
		l0,0l-1.8-1.8l0,0c0.9-0.1,1.4-0.6,2.1-1.3l4-4.1c0.9-0.9,1.2-1.3,1.4-2.5l0,0l2,1.9l0,0l-1.7,7.6l3-3.1c0.7-0.7,1.2-1.2,1.2-2.1
		l0,0l1.8,1.8l0,0c-0.9,0.1-1.4,0.6-2.1,1.3L651,287.1z"/>
	<path class="st1" d="M661.9,291.7c-0.5,0.8-0.9,1.4-0.8,2.3l0,0l-3-1.9l0,0c0.8-0.1,1.3-0.9,1.7-1.7l3.6-5.6
		c-0.2-0.2-0.3-0.3-0.5-0.4c-0.5-0.3-0.9-0.4-1.6-0.3l-0.1,0l1.8-1.9l0.2,0.2l5.2,3.3l-1.7,1.9c0.1-0.6-0.1-0.9-0.5-1.2
		c-0.2-0.1-0.4-0.2-0.6-0.3L661.9,291.7z"/>
	<path class="st1" d="M671.9,297.1c0.3,0.3,0.8,0.5,1.2,0.7c0.7,0.2,1.4,0.3,2.1-0.2l0.1,0l-1.3,2.2l-5.6-1.9l0-0.1
		c0.8-0.3,1-1.2,1.3-2l2-5.9c0.3-0.8,0.7-1.7,0.2-2.4l0,0l4.4,1.5c0.2,0.1,0.4,0.1,0.6,0.1l0,0l-0.8,2.3l0,0c-0.1-0.9-0.8-1-1.4-1.2
		l-0.4-0.1l-0.9,2.5l1.2,0.4c0.2,0.1,0.4,0.1,0.5,0.1l0.1,0l-0.7,2.2l-0.1,0c0-0.7-0.6-0.8-1-1l-0.4-0.1L671.9,297.1z"/>
	<path class="st1" d="M689.8,300.9c-0.9,0.3-1.9,0.5-2.8,0.5c-2.8,0-5-1.9-5.1-5.6c0-3.6,2.1-5.8,4.9-5.8c0.7,0,1.4,0.1,2.1,0.3
		l0,2.3h-0.1c-0.5-0.5-1.3-0.9-2-0.9c-1.7,0-2.4,1.5-2.4,3.6c0,2,0.6,4.4,2.6,4.4c0.2,0,0.4,0,0.5-0.1l0-2.5c0-0.7,0-1.2-0.5-1.6v0
		l2.8,0L689.8,300.9z"/>
	<path class="st1" d="M699.4,296.3c0.3,0.8,0.6,1.7,1.4,2l0,0.1l-3.3,1.3l0,0c0.4-0.7,0-1.6-0.3-2.4l-2.2-5.8
		c-0.3-0.8-0.6-1.7-1.4-2l0,0l3.7-1.4c0.6-0.2,1.1-0.4,1.8-0.3c0.9,0.2,1.6,0.9,2,1.9c0.5,1.2,0.1,2.3-0.5,3l2.7,2.5
		c0.6,0.6,1.2,1.1,1.9,1.4l-1.7,0.8c-0.8,0.4-1.3,0.4-2.1-0.4l-2.7-2.8L699.4,296.3z M696.9,289.8l1.4,3.5c0.7-0.5,1-1.5,0.6-2.5
		c-0.2-0.5-0.6-1-1-1.1c-0.3-0.1-0.6,0-0.8,0.1L696.9,289.8z"/>
	<path class="st1" d="M711.8,289.9c0.5,0.7,0.9,1.6,1.7,1.6l0,0.1l-3,1.9l0,0c0.3-0.8-0.3-1.5-0.8-2.2l-3.3-5.2
		c-0.5-0.7-0.9-1.6-1.7-1.7l0,0l3-1.9l0,0c-0.3,0.8,0.3,1.5,0.8,2.3L711.8,289.9z"/>
	<path class="st1" d="M720.2,283.4c0.6,0.7,1.1,1.3,2,1.4l0,0l-2.8,2.3l0,0c0.2-0.8-0.5-1.5-1.1-2.1l-4.3-5.1
		c-0.2,0.1-0.4,0.2-0.6,0.4c-0.5,0.4-0.6,0.8-0.8,1.4l0,0.1l-1.3-2.3l0.2-0.1l4.7-4l1.3,2.2c-0.5-0.3-0.9-0.2-1.3,0.1
		c-0.2,0.2-0.3,0.3-0.5,0.5L720.2,283.4z"/>
	<path class="st1" d="M729.2,274.5c0.7,0.7,1.3,1.1,2.1,1.2l0,0l-2.4,2.6l0,0c0.1-0.8-0.7-1.4-1.4-2l-1.9-1.7l-4.8-1.7
		c-0.5-0.2-1-0.3-1.5-0.3l0,0l2.1-2.3l0,0l3.9,1.5l-0.9-1.8c-0.1-0.3-0.4-0.8-0.6-1c-0.3-0.3-0.6-0.4-0.9-0.3l0,0l1.6-1.8l0,0
		l2.7,5.8L729.2,274.5z"/>
	<path d="M707.2,146.6c0,0,6.4,0.3,9.2,3.6c2.7,3.2,3.7,6.2,3.4,10.2c-0.3,3.2-1.5,5.4-1.5,5.4s5.8-4.9,4.2-11.4
		c-1.6-6.5-3.4-7.3-4.5-8.7c-0.9-1.2-1.8-2.9-4.5-2.4c-1.8,0.3-3.7,1.3-3.7,1.3L707.2,146.6z"/>
	<polygon points="666,224.2 668.3,220.3 663.7,220.3 661.5,216.3 659.3,220.3 654.7,220.3 657.1,224.2 	"/>
	<polygon class="st1" points="666,224.2 668.3,228.1 663.7,228.1 661.5,232 659.3,228.1 654.7,228.1 657.1,224.2 	"/>
	<polygon class="st1" points="715.5,209.4 717.8,205.4 713.3,205.5 711,201.5 708.8,205.5 704.2,205.4 706.6,209.4 	"/>
	<polygon points="715.5,209.4 717.8,213.3 713.3,213.2 711,217.2 708.8,213.2 704.2,213.3 706.6,209.4 	"/>
	<g>
		<path class="st1" d="M527,15.4v373.9H15.4V15.4H527 M530.4,12H12v380.8h518.4V12L530.4,12z"/>
	</g>
	<path class="st1" d="M200.4,131.6c-11.5-7.3-24.8-11.9-38.6-11.9c-28.8,0-48.8,21.1-48.8,51.3c0,30.7,20.9,58,53,58
		c15.6,0,31.3-5.6,44.4-13.1h0.6L200.4,240c-9.8,4.6-20.7,6.3-31.5,6.3c-49.2,0-79.7-27.5-79.7-72.2c0-43.2,30.5-71.8,73.2-71.8
		c12.7,0,25.7,2.3,38,5.2V131.6z"/>
	<path class="st1" d="M276.1,105.7c27.1,0,47.8,13.1,47.8,36.5c0,24-22.3,39.2-45.9,39.2c-5.2,0-10.4-0.6-15.2-2.9
		c17.9-1,37.3-12.1,37.3-32.1c0-18.4-12.9-25.7-29.6-25.7c-5,0-9.8,0.4-14.6,1.3v94.1c0,11.7-0.2,20,10.8,26.3v0.6h-41.5v-0.6
		c10.6-3.8,9.4-19.2,9.4-28.6v-78.7c0-9.4,1.2-24.6-9.2-28.8v-0.6H276.1z"/>
	<path class="st1" d="M352.5,191.4l-10.8,29.4c-4.4,11.7-5.8,17.7,4.2,21.5v0.6h-38.4v-0.6c12.1-6,15.6-17.7,20.2-29.6l34.8-87
		c2.9-7.5,6.9-16.3-3.1-19.4v-0.6h33l43.4,107c4.8,11.9,8.6,23.6,20.4,29.6v0.6h-42.8v-0.6c10.2-4.6,8.6-6.9,2.9-21.5L405,191.4
		H352.5z M378.5,123.4L357.9,176H399L378.5,123.4z"/>
	<path class="st1" d="M118.9,293.9h-8.7l4.3-12.2h0.1L118.9,293.9z M99.8,305.4h6.2l2.6-6.8h12l2.5,6.8h6.6l-11.6-29.6h-6.7
		L99.8,305.4z"/>
	<path class="st1" d="M147.3,275.8h5.9v17.1c0,5,1.6,8.4,6.2,8.4c4.5,0,6.2-3.3,6.2-8.4v-17.1h5.9v18.9c0,7.9-4.5,11.2-12.1,11.2
		c-7.6,0-12.1-3.3-12.1-11.2V275.8z"/>
	<path class="st1" d="M210.6,281.2c-1.9-0.8-3.9-1.3-6-1.3c-2,0-4.7,0.9-4.7,4.1c0,5.1,13,3,13,12.9c0,6.5-5.1,9-11.1,9
		c-3.2,0-4.7-0.4-7.6-1.1l0.6-5.3c2,1.1,4.4,1.8,6.7,1.8c2.2,0,5.3-1.1,5.3-3.8c0-5.6-13-3.3-13-13.1c0-6.6,5.1-9,10.4-9
		c2.5,0,4.9,0.3,7.1,1.1L210.6,281.2z"/>
	<path class="st1" d="M240.2,280.5h-8.5v-4.7h22.9v4.7h-8.5v24.9h-5.9V280.5z"/>
	<path class="st1" d="M281.2,280.5h2c3,0,6.3,0.3,6.3,3.9c0,3.7-3.4,4.1-6.3,4.1h-2V280.5z M275.3,305.4h5.9v-12.3h1.9
		c2.5,0,3.3,0.9,4.1,3.1l3.6,9.2h6.6l-4.8-11.6c-0.6-1.3-1.5-2.9-3.1-3.1v-0.1c3.8-0.5,6.1-3.4,6.1-6.9c0-8.2-7.6-8-14-8h-6.4V305.4
		z"/>
	<path class="st1" d="M333.5,293.9h-8.7l4.3-12.2h0.1L333.5,293.9z M314.4,305.4h6.2l2.6-6.8h12l2.5,6.8h6.6l-11.6-29.6h-6.7
		L314.4,305.4z"/>
	<path class="st1" d="M363.8,275.8h5.9v24.9h11.5v4.7h-17.4V275.8z"/>
	<path class="st1" d="M401.9,275.8h5.9v29.6h-5.9V275.8z"/>
	<path class="st1" d="M445.9,293.9h-8.7l4.3-12.2h0.1L445.9,293.9z M426.8,305.4h6.2l2.6-6.8h12l2.5,6.8h6.6L445,275.8h-6.7
		L426.8,305.4z"/>
</g>
</svg>
