<?xml version="1.0" encoding="utf-8"?>
<!-- Generator: Adobe Illustrator 22.1.0, SVG Export Plug-In . SVG Version: 6.00 Build 0)  -->
<svg version="1.1" id="Layer_1" xmlns="http://www.w3.org/2000/svg" xmlns:xlink="http://www.w3.org/1999/xlink" x="0px" y="0px"
	 viewBox="0 0 197.9 61.7" style="enable-background:new 0 0 197.9 61.7;" xml:space="preserve">
<style type="text/css">
	.st0{fill:#FFFFFF;}
</style>
<path class="st0" d="M46.8,32.1c-2.6-10.3-11.9-17.9-23-17.9C10.6,14.2,0,24.8,0,37.9C0,51,10.6,61.7,23.7,61.7
	c11.1,0,20.4-7.6,23-17.9h-10c-2.2,5-7.2,8.4-13,8.4c-7.9,0-14.2-6.4-14.2-14.2c0-7.9,6.4-14.2,14.2-14.2c5.8,0,10.8,3.5,13,8.4
	H46.8z"/>
<path class="st0" d="M96.4,37.9c0-13.1-10.6-23.7-23.7-23.7c-13.1,0-23.7,10.6-23.7,23.7c0,13.1,10.6,23.7,23.7,23.7
	C85.8,61.7,96.4,51,96.4,37.9 M86.9,37.9c0,7.9-6.4,14.2-14.2,14.2c-7.9,0-14.2-6.4-14.2-14.2c0-7.9,6.4-14.2,14.2-14.2
	C80.5,23.7,86.9,30.1,86.9,37.9"/>
<polygon class="st0" points="99.5,0 99.5,60.5 109.9,60.5 109.9,0 "/>
<path class="st0" d="M158,40.1c0.1-0.8,0.1-1.6,0.1-2.4c0-17.6-13.3-23.5-22.6-23.5h0c-9.2,0-22.6,5.9-22.6,23.5
	c0,14.6,10.6,24,22.6,24h0c9.7,0,18.5-6.1,21.5-16.2h-10.2c-2.3,4.5-6.6,7.2-11.2,7.2c-6.3,0-11.9-4.9-12.9-12.6h25.8v0H158z
	 M135.5,22.7L135.5,22.7L135.5,22.7c4.3,0,10.2,2.5,12.3,9.3h-24.6C125.3,25.2,131.2,22.7,135.5,22.7"/>
<path class="st0" d="M178.7,61.5c-12,0-18.9-5.8-18.9-15.9v-0.2h9.4l0,0.2c0.4,5.4,3.8,8,10.3,8c5.4,0,8.8-2.2,8.8-5.8
	c0-3-2.3-4.2-6.8-5.3l-6.6-1.7c-4.9-1.2-8.2-2.6-10.4-4.5c-2.4-2-3.5-4.7-3.5-8.3c0-4.1,1.6-7.6,4.6-10c3.1-2.5,7.5-3.8,12.8-3.8
	c5.5,0,10.1,1.4,13.3,3.9c3.2,2.5,4.9,6.1,4.9,10.4v0.1h-9.3l0-0.1c-0.3-4.3-3.4-6.6-9.2-6.6c-4.6,0-7.4,1.8-7.4,4.7
	c0,3.2,2.8,4.5,7.3,5.5l5.6,1.3c9.2,2.1,14.2,4.9,14.2,13.2c0,4.6-1.7,8.3-5,10.9C189.6,60.2,184.7,61.5,178.7,61.5"/>
</svg>
