<?xml version="1.0" encoding="utf-8"?>
<!-- Generator: Adobe Illustrator 22.1.0, SVG Export Plug-In . SVG Version: 6.00 Build 0)  -->
<svg version="1.1" id="Layer_1" xmlns="http://www.w3.org/2000/svg" xmlns:xlink="http://www.w3.org/1999/xlink" x="0px" y="0px"
	 viewBox="0 0 993.9 149.3" style="enable-background:new 0 0 993.9 149.3;" xml:space="preserve">
<style type="text/css">
	.st0{fill:#FFFFFF;}
</style>
<g>
	<path class="st0" d="M861,39c-11.7,0-21.9,1.8-31.2,5.6c-3.5,1.5-6.1,4.8-6.1,8.1c0,4.4,3.1,7.2,7.8,7.2c2.5,0,5.3-0.8,8.6-1.7
		c4.4-1.2,10-2.8,16.8-2.8c16.1,0,26.1,7.5,26.1,19.6v15.1c-6.3-4.6-16-7.4-26.3-7.4c-20.2,0-40.6,11.7-40.6,34.1
		c0,22.2,19.1,32.3,36.9,32.3c11.5,0,22.2-3.9,30-10.9c0,0.7,0.1,0.2,0.1,1.4c0.2,4,2.9,8.9,8.3,8.9c5.5,0,8.4-3.6,8.4-7.8v-67
		C899.9,52.7,884.6,39,861,39z M855.4,133.4c-10.8,0-22.4-4.6-22.4-17.4c0-8,6.2-17.3,23.7-17.3c12.8,0,26.1,6,26.1,16.1
		C882.8,126.4,868.9,133.4,855.4,133.4z"/>
	<path class="st0" d="M514.4,86.1c-1.9-0.8-3.7-1.5-5.6-2.2c-11.1-4.4-21.7-8.6-21.7-14.9c0-12.2,15.7-13.2,20.6-13.2
		c8.8,0,17.4,2.3,21.3,4.6c1.5,0.8,3.2,1.3,4.8,1.3c4.7,0,7.8-3.2,7.8-8c0-3.4-1.6-6.3-4.3-7.8c-8.2-4.5-18.4-6.8-29.3-6.8
		c-23.4,0-38.6,12.4-38.6,31.6c0,17.5,23.8,26.1,38,31.3c9.4,3.4,20.2,8.3,20.2,16.2c0,10.7-11.4,14.5-21.1,14.5
		c-8.2,0-16.5-2.7-24.5-8c-2.2-1.5-4.3-2.3-6.2-2.3c-3.7,0-7.6,2.4-7.6,9.1c0,3,1.1,5.5,3.1,6.8c12.1,7.7,22.8,11.1,34.9,11.1
		c18.3,0,39.7-8.5,39.7-32.5C545.9,99.2,529.9,92.6,514.4,86.1z"/>
	<path class="st0" d="M628,40.5c-5.2,0-7.8,2.9-7.8,8.7v44.4c0,25-14.1,38.4-27.4,38.4c-10.8,0-21.9-3.8-21.9-32l-0.2-51.2
		c0-5.5-2.9-8.4-8.4-8.4c-5.3,0-8.2,3-8.2,8.4V106c0,14.5,3.8,25.8,11.4,33.4c6.5,6.5,15.3,10,25.5,10c10.7,0,20.8-5.6,28.3-15.7
		v7.3c0,5,3,7.8,8.5,7.8c5.3,0,8.2-2.7,8.2-7.6V49.2C636.2,43.6,633.3,40.5,628,40.5z"/>
	<path class="st0" d="M764.2,39c-11,0-22.8,6.9-28.9,16.2V8.7c0-5.7-2.9-8.7-8.4-8.7c-5.5,0-8.4,2.5-8.4,8.2v131.5
		c0,5.9,2.9,9.1,8.2,9.1c4.9,0,8.5-3.8,8.5-8.9v-4.6c6.3,8.8,16.8,14.1,28.9,14.1c13.8,0,25.3-6,33.4-17.2c7.1-9.9,11-22.7,11-37
		C808.6,67.3,793.4,39,764.2,39z M765.1,133.4c-20.1,0-29-19.1-29-38.6c0-19,9.1-39.4,29-39.4c9.8,0,26.3,8.4,26.3,40.1
		C791.4,113.2,784.5,133.4,765.1,133.4z"/>
	<path class="st0" d="M324.7,39c-11.7,0-21.9,1.8-31.2,5.6c-3.5,1.5-6.1,4.8-6.1,8.1c0,4.4,3.1,7.2,7.8,7.2c2.5,0,5.3-0.8,8.6-1.7
		c4.4-1.2,10-2.8,16.8-2.8c16.1,0,26.1,7.5,26.1,19.6v15.1c-6.3-4.6-16-7.4-26.3-7.4c-20.2,0-40.6,11.7-40.6,34.1
		c0,22.2,19.1,32.3,36.9,32.3c11.5,0,22.2-3.9,30-10.9c0,0.7,0.1,0.2,0.1,1.4c0.2,4,2.9,8.9,8.3,8.9c5.5,0,8.4-3.6,8.4-7.8v-67
		C363.6,52.7,348.3,39,324.7,39z M319.2,133.4c-10.8,0-22.4-4.6-22.4-17.4c0-8,6.2-17.3,23.7-17.3c12.8,0,26.1,6,26.1,16.1
		C346.6,126.4,332.6,133.4,319.2,133.4z"/>
	<path class="st0" d="M696.3,39c-12.6,0-23.7,5.3-30.7,14.3v-4.1c0-5.7-2.9-8.7-8.4-8.7c-5.3,0-8.2,3.1-8.2,8.7v91.4
		c0,5.3,2.9,8.2,8.2,8.2c5.4,0,8.4-2.9,8.4-8.2V81.7c0-13.6,13.4-25.2,24.4-25.2c3.2,0,5,0.3,6.8,0.7c1.6,0.3,3.3,0.6,5.8,0.6
		c4.8,0,8.7-3.9,8.7-8.7C711.3,44.4,707.4,39,696.3,39z"/>
	<path class="st0" d="M420.2,39c-10.7,0-20,4.5-26.1,12.4v-2.2c0-5.7-2.9-8.7-8.4-8.7c-5.3,0-8.2,3.1-8.2,8.7v91.4
		c0,5.3,2.9,8.2,8.2,8.2c5.4,0,8.4-2.9,8.4-8.2V81.7c0-17.9,12.4-26.1,23.9-26.1c15.9,0,23.1,13.5,23.1,26.1v58.9
		c0,5.3,2.9,8.2,8.2,8.2c5.4,0,8.4-2.9,8.4-8.2V75.8C457.6,52.8,438.6,39,420.2,39z"/>
	<path class="st0" d="M956.4,39c-10.7,0-20,4.5-26.1,12.4v-2.2c0-5.7-2.9-8.7-8.4-8.7c-5.3,0-8.2,3.1-8.2,8.7v91.4
		c0,5.3,2.9,8.2,8.2,8.2c5.4,0,8.4-2.9,8.4-8.2V81.7c0-17.9,12.4-26.1,23.9-26.1c15.9,0,23.1,13.5,23.1,26.1v58.9
		c0,5.3,2.9,8.2,8.2,8.2c5.4,0,8.4-2.9,8.4-8.2V75.8C993.9,52.8,974.9,39,956.4,39z"/>
	<path class="st0" d="M261.3,39c-12.6,0-23.7,5.3-30.7,14.3v-4.1c0-5.7-2.9-8.7-8.4-8.7c-5.3,0-8.2,3.1-8.2,8.7v91.4
		c0,5.3,3,8.2,8.3,8.2s8.3-2.9,8.3-8.2l0-58.9c0-13.6,13.4-25.2,24.4-25.2c3.2,0,5,0.3,6.8,0.7c1.6,0.3,3.3,0.6,5.8,0.6
		c4.8,0,8.7-3.9,8.7-8.7C276.3,44.4,272.4,39,261.3,39z"/>
	<path class="st0" d="M221.5,7.7h-86.2c-5.3,0-8.2,3-8.2,8.3s2.9,8.3,8.2,8.3h34.8v116.4c0,5.3,3,8.2,8.3,8.2s8.3-2.9,8.3-8.2V24.3
		h34.8c5.3,0,8.2-3,8.2-8.3S226.8,7.7,221.5,7.7z"/>
	<path class="st0" d="M134.6,90.7H48.5c-5.3,0-8.2,3-8.2,8.3s2.9,8.3,8.2,8.3h86.2c5.3,0,8.2-3,8.2-8.3S139.9,90.7,134.6,90.7z"/>
	<path class="st0" d="M134.6,49.2H88.7c-5.3,0-8.2,3-8.2,8.3s2.9,8.3,8.2,8.3h45.9c5.3,0,8.2-3,8.2-8.3S139.9,49.2,134.6,49.2z"/>
	<path class="st0" d="M134.6,132.3H8.2c-5.3,0-8.2,3-8.2,8.3s2.9,8.3,8.2,8.3h126.5c5.3,0,8.2-3,8.2-8.3S139.9,132.3,134.6,132.3z"
		/>
</g>
</svg>
