<?xml version="1.0" encoding="UTF-8"?>
<svg width="179px" height="66px" viewBox="0 0 179 66" version="1.1" xmlns="http://www.w3.org/2000/svg" xmlns:xlink="http://www.w3.org/1999/xlink">
    <!-- Generator: Sketch 51.3 (57544) - http://www.bohemiancoding.com/sketch -->
    <title>Artboard</title>
    <desc>Created with Sketch.</desc>
    <defs>
        <polygon id="path-1" points="0.464370732 0.581263043 23.699122 0.581263043 23.699122 26.7201978 0.464370732 26.7201978"></polygon>
        <polygon id="path-3" points="0 0.33407767 61.6663437 0.33407767 61.6663437 62 0 62"></polygon>
    </defs>
    <g id="Artboard" stroke="none" stroke-width="1" fill="none" fill-rule="evenodd">
        <g id="Group-31" transform="translate(2.000000, 2.000000)">
            <path d="M84.3335333,36.1293539 C87.3833233,36.1293539 88.8290342,35.9171327 88.8290342,33.554807 C88.8290342,31.0748501 87.3437313,30.7741023 84.3335333,30.7741023 L73.0011998,30.7801657 L73,24 L84.0017996,24 C88.124775,24 91.1325735,24.3365223 93.3221356,25.8002425 C95.8134373,27.4889173 97,29.9688742 97,33.3856363 C97,39.392104 93.3995201,42.7330728 86.7120576,42.7354982 L81.5872825,42.7354982 L81.5872825,50.9987873 L73.004799,51 L73.0011998,36.1293539 L84.3335333,36.1293539 Z" id="Fill-1" fill="#FFFFFF"></path>
            <path d="M110.517512,44.3129967 C114.058592,44.3129967 115.581034,41.9855783 115.578699,36.9979125 C115.578699,32.0144219 114.058592,29.6858106 110.515177,29.6858106 C106.972931,29.6870035 105.420133,32.0144219 105.420133,36.9991054 C105.420133,41.9867713 106.974098,44.3129967 110.517512,44.3129967 M110.515177,23.0000002 C118.867011,22.9988073 123.999999,28.3515116 123.999999,36.9979125 C124.002334,45.6401381 118.871681,50.9988071 110.517512,51 C102.170349,51 97.0000002,45.6431204 97.0000002,37.0002983 C96.9988327,28.3550904 102.165679,23.0011931 110.515177,23.0000002" id="Fill-3" fill="#FFFFFF"></path>
            <path d="M135.330838,41.4680345 C135.553339,43.7967449 136.999899,44.6825377 139.347922,44.6825377 C141.442088,44.6813447 142.597407,43.9076927 142.597407,42.7636183 C142.597407,41.098805 141.032059,40.9520676 137.855535,40.1408365 C134.122456,39.1822715 131.694236,38.364479 130.572685,37.5908269 C128.481534,36.1156986 127.474549,34.0828489 127.474549,31.4570847 C127.474549,26.3260479 131.580875,23.0000003 138.747349,23.0000003 C145.694337,22.9988074 150.014723,26.0814856 150.293302,31.8621037 L142.115622,31.8632967 C142.095724,29.7934644 140.693181,29.0221984 138.601427,29.0221984 C136.77378,29.0221984 135.87473,29.6127269 135.875936,30.83017 C135.875936,32.2361051 137.257374,32.4937903 139.869504,33.1588805 C143.19195,34.0082872 145.846289,34.5230611 147.566001,35.6707145 C149.917642,37.2192115 151,39.14171 151,41.871264 C151.001206,47.6369699 146.8183,51 138.977086,51 C131.76961,51 127.259886,47.626233 127,41.4692274 L135.330838,41.4680345 Z" id="Fill-5" fill="#FFFFFF"></path>
            <g id="Group-9" transform="translate(151.000000, 23.000000)">
                <mask id="mask-2" fill="white">
                    <use xlink:href="#path-1"></use>
                </mask>
                <g id="Clip-8"></g>
                <polygon id="Fill-7" fill="#FFFFFF" mask="url(#mask-2)" points="7.96876098 7.45276304 0.465541463 7.45393696 0.464370732 0.582436957 23.6969561 0.581263043 23.6992976 7.45158913 16.3389073 7.45276304 16.344761 26.7190239 7.97227317 26.7201978"></polygon>
            </g>
            <path d="M74.5185445,13.3832766 L73.6980754,16.3846215 L75.3074379,16.3846215 L74.5185445,13.3832766 Z M73.4554932,17.3309865 L73.0239575,19 L72,19 L73.9887731,12 L75.0648557,12 L77,19 L75.9710305,19 L75.5590417,17.3309865 L73.4554932,17.3309865 Z" id="Fill-10" fill="#FFFFFF"></path>
            <path d="M80,12 L80,16.7380878 L80,16.9660542 C80,17.8343195 80.0308681,18.4964186 80.4699509,19.1005917 C80.9216329,19.7234506 81.5452942,20 82.4914955,20 C83.2984755,20 83.8881189,19.8087823 84.2868842,19.4132669 C84.7725841,18.9342884 85,18.1376518 85,16.9124883 L85,12 L83.8572509,12 L83.8572509,16.9025226 L83.8572509,17.0738088 C83.8572509,17.6692619 83.8427617,18.0853317 83.6481038,18.4036126 C83.4068288,18.8041109 83.0282223,18.9971971 82.4914955,18.9971971 C81.9572886,18.9971971 81.5931712,18.8103395 81.3474865,18.4036126 C81.1465289,18.0753659 81.1307799,17.6592962 81.1307799,17.0619745 L81.1307799,16.9025226 L81.1307799,12 L80,12 Z" id="Fill-12" fill="#FFFFFF"></path>
            <path d="M87.0104507,17.6044748 C87.0104507,17.6449314 87.0073155,17.6835492 87.0052253,17.7215539 C87.0031352,17.7589457 87,17.7969504 87,17.8355682 C87,18.5276224 87.1572828,19.0615279 87.4666231,19.423186 C87.7973873,19.8075243 88.2964076,20 88.9568909,20 C89.6351404,20 90.1587198,19.7891349 90.5161332,19.3729216 C90.8374918,18.996552 91,18.4749061 91,17.8257605 C91,16.865834 90.4884389,16.4048732 89.7109079,15.8108957 L89.3477466,15.5368937 C88.5352057,14.9263658 88.0873939,14.5910658 88.0873939,13.9026894 C88.0873939,13.6605624 88.1678641,13.4343728 88.3136512,13.2608995 C88.4871326,13.0573902 88.7405617,12.9446019 89.0279556,12.9446019 C89.3069889,12.9446019 89.522273,13.0322581 89.6680601,13.2045054 C89.8310908,13.3975941 89.9141737,13.6991801 89.9141737,14.1037468 L89.9141737,14.2606697 L89.9141737,14.3385181 L89.9805356,14.3385181 L90.8714566,14.3385181 L90.9378184,14.3385181 L90.9378184,14.2606697 L90.9378184,14.0712589 C90.9378184,13.430695 90.7847159,12.9243736 90.4795558,12.5700713 C90.1566297,12.1930887 89.6811234,12 89.0640105,12 C87.8778576,12 87.0820379,12.8109723 87.0820379,14.0173167 C87.0820379,15.1439736 87.5909863,15.5785764 88.5629001,16.3092483 L88.8262573,16.50295 C89.5536251,17.0393073 89.994644,17.3617347 89.994644,17.9722627 C89.994644,18.599341 89.5651208,19.056624 88.9730895,19.056624 C88.6914435,19.056624 88.4839974,18.9775496 88.3444807,18.813884 C88.1720444,18.6091487 88.0873939,18.2579113 88.0873939,17.7423952 L88.0873939,17.6044748 L88.0873939,17.5266263 L88.021032,17.5266263 L87.0757675,17.5266263 L87.0104507,17.5266263 L87.0104507,17.6044748 Z" id="Fill-14" fill="#FFFFFF"></path>
            <polygon id="Fill-16" fill="#FFFFFF" points="95.127932 12.8445411 95.127932 19 93.9291239 19 93.9291239 12.8445411 92 12.8445411 92 12 97 12 97 12.8445411"></polygon>
            <path d="M100.702394,13.0998418 C100.54407,12.9353639 100.293254,12.8534019 99.9586507,12.8534019 L99.0277476,12.8534019 L99.0277476,14.9827532 L99.6109902,14.9827532 C100.552775,14.9827532 100.937432,14.6488133 100.937432,13.8330696 C100.937432,13.5052215 100.857454,13.2587816 100.702394,13.0998418 M100.993471,15.3753956 C101.658868,15.5498418 101.807399,16.0864715 101.807399,16.8335443 C101.807399,16.9775316 101.803047,17.1060127 101.801415,17.2328323 C101.801415,17.3375 101.799238,17.4360759 101.799238,17.5291139 C101.799238,18.0441456 101.854189,18.4949367 101.973341,18.9091772 L102,19 L101.907508,19 L100.98803,19 L100.936344,19 L100.92111,18.9496044 C100.77802,18.4788766 100.772579,17.9533228 100.770403,17.3984177 C100.768226,17.2079114 100.76605,17.0102057 100.760609,16.8064082 C100.741567,16.0925633 100.560936,15.8643987 100.023395,15.8643987 L99.0277476,15.8643987 L99.0277476,18.9296677 L99.0277476,19 L98.9597388,19 L98.0680087,19 L98,19 L98,18.9296677 L98,12.0714399 L98,12 L98.0680087,12 L99.8351469,12 C100.655604,12 101.22198,12.1661392 101.559848,12.5094937 C101.832971,12.7875 101.965724,13.184019 101.965724,13.7184335 C101.965724,14.5579905 101.645811,15.1029272 100.993471,15.3753956" id="Fill-18" fill="#FFFFFF"></path>
            <path d="M105.517542,13.3832766 L104.699078,16.3846215 L106.303428,16.3846215 L105.517542,13.3832766 Z M106.555032,17.3309865 L104.454491,17.3309865 L104.024459,19 L103,19 L104.989775,12 L106.062851,12 L108,19 L106.972033,19 L106.555032,17.3309865 Z" id="Fill-20" fill="#FFFFFF"></path>
            <polygon id="Fill-22" fill="#FFFFFF" points="112.229105 18.0708014 112.229105 12 111 12 111 19 115 19 115 18.0708014"></polygon>
            <polygon id="Fill-24" fill="#FFFFFF" points="116.064129 19 116.934828 19 117 19 117 18.9296733 117 12.0714342 117 12 116.934828 12 116.064129 12 116 12 116 12.0714342 116 18.9296733 116 19"></polygon>
            <path d="M120.515786,13.3832766 L119.697404,16.3846215 L121.305603,16.3846215 L120.515786,13.3832766 Z M121.557182,17.3309865 L119.453844,17.3309865 L119.022853,19 L118,19 L119.989075,12 L121.062043,12 L123,19 L121.970131,19 L121.557182,17.3309865 Z" id="Fill-26" fill="#FFFFFF"></path>
            <g id="Group-30">
                <mask id="mask-4" fill="white">
                    <use xlink:href="#path-3"></use>
                </mask>
                <g id="Clip-29"></g>
                <path d="M30.8318777,51.2085689 C30.2774893,51.2085689 29.7267126,51.1923165 29.184965,51.145365 L29.184965,38.4112874 C36.7796641,38.4197146 42.9670233,32.7048796 43.0175864,25.6061806 C43.072965,18.4755786 36.9229262,12.6499864 29.2866932,12.5952097 L29.184965,12.5952097 L29.184965,11.186666 C29.7267126,11.145132 30.2774893,11.125268 30.8318777,11.125268 C41.8973728,11.125268 50.874732,20.0966078 50.874732,31.1645107 C50.874732,42.2360252 41.8973728,51.2085689 30.8318777,51.2085689 Z M23.7337806,49.9198117 C16.1685767,47.0503553 10.792635,39.7397728 10.792635,31.1645107 C10.792635,22.5904524 16.1685767,15.2810738 23.7337806,12.4128214 L23.7337806,49.9198117 Z M59.1995864,0.333656311 L2.4665767,0.333656311 C1.10378058,0.333656311 -0.000180582524,1.43761748 -0.000180582524,2.79920971 L-0.000180582524,59.5346272 C-0.000180582524,60.8962194 1.10378058,62.0001806 2.4665767,62.0001806 L59.1995864,62.0001806 C60.5611786,62.0001806 61.6663437,60.8962194 61.6663437,59.5346272 L61.6663437,2.79920971 C61.6663437,1.43761748 60.5611786,0.333656311 59.1995864,0.333656311 Z" id="Fill-28" fill="#FFFFFF" mask="url(#mask-4)"></path>
            </g>
        </g>
    </g>
</svg>